G04 #@! TF.FileFunction,Legend,Top*
%FSLAX46Y46*%
G04 Gerber Fmt 4.6, Leading zero omitted, Abs format (unit mm)*
G04 Created by KiCad (PCBNEW 0.201604232031+6710~44~ubuntu14.04.1-product) date Wed 27 Apr 2016 13:06:26 BST*
%MOMM*%
%LPD*%
G01*
G04 APERTURE LIST*
%ADD10C,0.100000*%
%ADD11C,0.150000*%
G04 APERTURE END LIST*
D10*
X94999047Y-49762380D02*
X95070476Y-49786190D01*
X95189523Y-49786190D01*
X95237142Y-49762380D01*
X95260952Y-49738571D01*
X95284761Y-49690952D01*
X95284761Y-49643333D01*
X95260952Y-49595714D01*
X95237142Y-49571904D01*
X95189523Y-49548095D01*
X95094285Y-49524285D01*
X95046666Y-49500476D01*
X95022857Y-49476666D01*
X94999047Y-49429047D01*
X94999047Y-49381428D01*
X95022857Y-49333809D01*
X95046666Y-49310000D01*
X95094285Y-49286190D01*
X95213333Y-49286190D01*
X95284761Y-49310000D01*
X95475238Y-49762380D02*
X95546666Y-49786190D01*
X95665714Y-49786190D01*
X95713333Y-49762380D01*
X95737142Y-49738571D01*
X95760952Y-49690952D01*
X95760952Y-49643333D01*
X95737142Y-49595714D01*
X95713333Y-49571904D01*
X95665714Y-49548095D01*
X95570476Y-49524285D01*
X95522857Y-49500476D01*
X95499047Y-49476666D01*
X95475238Y-49429047D01*
X95475238Y-49381428D01*
X95499047Y-49333809D01*
X95522857Y-49310000D01*
X95570476Y-49286190D01*
X95689523Y-49286190D01*
X95760952Y-49310000D01*
X94767142Y-48012380D02*
X94838571Y-48036190D01*
X94957619Y-48036190D01*
X95005238Y-48012380D01*
X95029047Y-47988571D01*
X95052857Y-47940952D01*
X95052857Y-47893333D01*
X95029047Y-47845714D01*
X95005238Y-47821904D01*
X94957619Y-47798095D01*
X94862380Y-47774285D01*
X94814761Y-47750476D01*
X94790952Y-47726666D01*
X94767142Y-47679047D01*
X94767142Y-47631428D01*
X94790952Y-47583809D01*
X94814761Y-47560000D01*
X94862380Y-47536190D01*
X94981428Y-47536190D01*
X95052857Y-47560000D01*
X95552857Y-47988571D02*
X95529047Y-48012380D01*
X95457619Y-48036190D01*
X95410000Y-48036190D01*
X95338571Y-48012380D01*
X95290952Y-47964761D01*
X95267142Y-47917142D01*
X95243333Y-47821904D01*
X95243333Y-47750476D01*
X95267142Y-47655238D01*
X95290952Y-47607619D01*
X95338571Y-47560000D01*
X95410000Y-47536190D01*
X95457619Y-47536190D01*
X95529047Y-47560000D01*
X95552857Y-47583809D01*
X95767142Y-48036190D02*
X95767142Y-47536190D01*
X96052857Y-48036190D02*
X95838571Y-47750476D01*
X96052857Y-47536190D02*
X95767142Y-47821904D01*
X94928095Y-46082380D02*
X94999523Y-46106190D01*
X95118571Y-46106190D01*
X95166190Y-46082380D01*
X95190000Y-46058571D01*
X95213809Y-46010952D01*
X95213809Y-45963333D01*
X95190000Y-45915714D01*
X95166190Y-45891904D01*
X95118571Y-45868095D01*
X95023333Y-45844285D01*
X94975714Y-45820476D01*
X94951904Y-45796666D01*
X94928095Y-45749047D01*
X94928095Y-45701428D01*
X94951904Y-45653809D01*
X94975714Y-45630000D01*
X95023333Y-45606190D01*
X95142380Y-45606190D01*
X95213809Y-45630000D01*
X95428095Y-46106190D02*
X95428095Y-45606190D01*
X95547142Y-45606190D01*
X95618571Y-45630000D01*
X95666190Y-45677619D01*
X95690000Y-45725238D01*
X95713809Y-45820476D01*
X95713809Y-45891904D01*
X95690000Y-45987142D01*
X95666190Y-46034761D01*
X95618571Y-46082380D01*
X95547142Y-46106190D01*
X95428095Y-46106190D01*
X95928095Y-46106190D02*
X95928095Y-45606190D01*
X94755238Y-43952380D02*
X94826666Y-43976190D01*
X94945714Y-43976190D01*
X94993333Y-43952380D01*
X95017142Y-43928571D01*
X95040952Y-43880952D01*
X95040952Y-43833333D01*
X95017142Y-43785714D01*
X94993333Y-43761904D01*
X94945714Y-43738095D01*
X94850476Y-43714285D01*
X94802857Y-43690476D01*
X94779047Y-43666666D01*
X94755238Y-43619047D01*
X94755238Y-43571428D01*
X94779047Y-43523809D01*
X94802857Y-43500000D01*
X94850476Y-43476190D01*
X94969523Y-43476190D01*
X95040952Y-43500000D01*
X95255238Y-43976190D02*
X95255238Y-43476190D01*
X95374285Y-43476190D01*
X95445714Y-43500000D01*
X95493333Y-43547619D01*
X95517142Y-43595238D01*
X95540952Y-43690476D01*
X95540952Y-43761904D01*
X95517142Y-43857142D01*
X95493333Y-43904761D01*
X95445714Y-43952380D01*
X95374285Y-43976190D01*
X95255238Y-43976190D01*
X95850476Y-43476190D02*
X95945714Y-43476190D01*
X95993333Y-43500000D01*
X96040952Y-43547619D01*
X96064761Y-43642857D01*
X96064761Y-43809523D01*
X96040952Y-43904761D01*
X95993333Y-43952380D01*
X95945714Y-43976190D01*
X95850476Y-43976190D01*
X95802857Y-43952380D01*
X95755238Y-43904761D01*
X95731428Y-43809523D01*
X95731428Y-43642857D01*
X95755238Y-43547619D01*
X95802857Y-43500000D01*
X95850476Y-43476190D01*
X95314761Y-41978571D02*
X95290952Y-42002380D01*
X95219523Y-42026190D01*
X95171904Y-42026190D01*
X95100476Y-42002380D01*
X95052857Y-41954761D01*
X95029047Y-41907142D01*
X95005238Y-41811904D01*
X95005238Y-41740476D01*
X95029047Y-41645238D01*
X95052857Y-41597619D01*
X95100476Y-41550000D01*
X95171904Y-41526190D01*
X95219523Y-41526190D01*
X95290952Y-41550000D01*
X95314761Y-41573809D01*
X95814761Y-42026190D02*
X95648095Y-41788095D01*
X95529047Y-42026190D02*
X95529047Y-41526190D01*
X95719523Y-41526190D01*
X95767142Y-41550000D01*
X95790952Y-41573809D01*
X95814761Y-41621428D01*
X95814761Y-41692857D01*
X95790952Y-41740476D01*
X95767142Y-41764285D01*
X95719523Y-41788095D01*
X95529047Y-41788095D01*
X95344761Y-39638571D02*
X95320952Y-39662380D01*
X95249523Y-39686190D01*
X95201904Y-39686190D01*
X95130476Y-39662380D01*
X95082857Y-39614761D01*
X95059047Y-39567142D01*
X95035238Y-39471904D01*
X95035238Y-39400476D01*
X95059047Y-39305238D01*
X95082857Y-39257619D01*
X95130476Y-39210000D01*
X95201904Y-39186190D01*
X95249523Y-39186190D01*
X95320952Y-39210000D01*
X95344761Y-39233809D01*
X95559047Y-39686190D02*
X95559047Y-39186190D01*
X95678095Y-39186190D01*
X95749523Y-39210000D01*
X95797142Y-39257619D01*
X95820952Y-39305238D01*
X95844761Y-39400476D01*
X95844761Y-39471904D01*
X95820952Y-39567142D01*
X95797142Y-39614761D01*
X95749523Y-39662380D01*
X95678095Y-39686190D01*
X95559047Y-39686190D01*
X94969047Y-36940000D02*
X94921428Y-36916190D01*
X94850000Y-36916190D01*
X94778571Y-36940000D01*
X94730952Y-36987619D01*
X94707142Y-37035238D01*
X94683333Y-37130476D01*
X94683333Y-37201904D01*
X94707142Y-37297142D01*
X94730952Y-37344761D01*
X94778571Y-37392380D01*
X94850000Y-37416190D01*
X94897619Y-37416190D01*
X94969047Y-37392380D01*
X94992857Y-37368571D01*
X94992857Y-37201904D01*
X94897619Y-37201904D01*
X95207142Y-37416190D02*
X95207142Y-36916190D01*
X95492857Y-37416190D01*
X95492857Y-36916190D01*
X95730952Y-37416190D02*
X95730952Y-36916190D01*
X95850000Y-36916190D01*
X95921428Y-36940000D01*
X95969047Y-36987619D01*
X95992857Y-37035238D01*
X96016666Y-37130476D01*
X96016666Y-37201904D01*
X95992857Y-37297142D01*
X95969047Y-37344761D01*
X95921428Y-37392380D01*
X95850000Y-37416190D01*
X95730952Y-37416190D01*
X88379047Y-49320000D02*
X88331428Y-49296190D01*
X88260000Y-49296190D01*
X88188571Y-49320000D01*
X88140952Y-49367619D01*
X88117142Y-49415238D01*
X88093333Y-49510476D01*
X88093333Y-49581904D01*
X88117142Y-49677142D01*
X88140952Y-49724761D01*
X88188571Y-49772380D01*
X88260000Y-49796190D01*
X88307619Y-49796190D01*
X88379047Y-49772380D01*
X88402857Y-49748571D01*
X88402857Y-49581904D01*
X88307619Y-49581904D01*
X88617142Y-49796190D02*
X88617142Y-49296190D01*
X88902857Y-49796190D01*
X88902857Y-49296190D01*
X89140952Y-49796190D02*
X89140952Y-49296190D01*
X89260000Y-49296190D01*
X89331428Y-49320000D01*
X89379047Y-49367619D01*
X89402857Y-49415238D01*
X89426666Y-49510476D01*
X89426666Y-49581904D01*
X89402857Y-49677142D01*
X89379047Y-49724761D01*
X89331428Y-49772380D01*
X89260000Y-49796190D01*
X89140952Y-49796190D01*
X88003333Y-47246190D02*
X88170000Y-47746190D01*
X88336666Y-47246190D01*
X88789047Y-47698571D02*
X88765238Y-47722380D01*
X88693809Y-47746190D01*
X88646190Y-47746190D01*
X88574761Y-47722380D01*
X88527142Y-47674761D01*
X88503333Y-47627142D01*
X88479523Y-47531904D01*
X88479523Y-47460476D01*
X88503333Y-47365238D01*
X88527142Y-47317619D01*
X88574761Y-47270000D01*
X88646190Y-47246190D01*
X88693809Y-47246190D01*
X88765238Y-47270000D01*
X88789047Y-47293809D01*
X89289047Y-47698571D02*
X89265238Y-47722380D01*
X89193809Y-47746190D01*
X89146190Y-47746190D01*
X89074761Y-47722380D01*
X89027142Y-47674761D01*
X89003333Y-47627142D01*
X88979523Y-47531904D01*
X88979523Y-47460476D01*
X89003333Y-47365238D01*
X89027142Y-47317619D01*
X89074761Y-47270000D01*
X89146190Y-47246190D01*
X89193809Y-47246190D01*
X89265238Y-47270000D01*
X89289047Y-47293809D01*
X88170000Y-45646190D02*
X88170000Y-45146190D01*
X88503333Y-45146190D02*
X88598571Y-45146190D01*
X88646190Y-45170000D01*
X88693809Y-45217619D01*
X88717619Y-45312857D01*
X88717619Y-45479523D01*
X88693809Y-45574761D01*
X88646190Y-45622380D01*
X88598571Y-45646190D01*
X88503333Y-45646190D01*
X88455714Y-45622380D01*
X88408095Y-45574761D01*
X88384285Y-45479523D01*
X88384285Y-45312857D01*
X88408095Y-45217619D01*
X88455714Y-45170000D01*
X88503333Y-45146190D01*
X89193809Y-45646190D02*
X88908095Y-45646190D01*
X89050952Y-45646190D02*
X89050952Y-45146190D01*
X89003333Y-45217619D01*
X88955714Y-45265238D01*
X88908095Y-45289047D01*
X88110000Y-43776190D02*
X88110000Y-43276190D01*
X88443333Y-43276190D02*
X88538571Y-43276190D01*
X88586190Y-43300000D01*
X88633809Y-43347619D01*
X88657619Y-43442857D01*
X88657619Y-43609523D01*
X88633809Y-43704761D01*
X88586190Y-43752380D01*
X88538571Y-43776190D01*
X88443333Y-43776190D01*
X88395714Y-43752380D01*
X88348095Y-43704761D01*
X88324285Y-43609523D01*
X88324285Y-43442857D01*
X88348095Y-43347619D01*
X88395714Y-43300000D01*
X88443333Y-43276190D01*
X88848095Y-43323809D02*
X88871904Y-43300000D01*
X88919523Y-43276190D01*
X89038571Y-43276190D01*
X89086190Y-43300000D01*
X89110000Y-43323809D01*
X89133809Y-43371428D01*
X89133809Y-43419047D01*
X89110000Y-43490476D01*
X88824285Y-43776190D01*
X89133809Y-43776190D01*
X88140000Y-41736190D02*
X88140000Y-41236190D01*
X88473333Y-41236190D02*
X88568571Y-41236190D01*
X88616190Y-41260000D01*
X88663809Y-41307619D01*
X88687619Y-41402857D01*
X88687619Y-41569523D01*
X88663809Y-41664761D01*
X88616190Y-41712380D01*
X88568571Y-41736190D01*
X88473333Y-41736190D01*
X88425714Y-41712380D01*
X88378095Y-41664761D01*
X88354285Y-41569523D01*
X88354285Y-41402857D01*
X88378095Y-41307619D01*
X88425714Y-41260000D01*
X88473333Y-41236190D01*
X88854285Y-41236190D02*
X89163809Y-41236190D01*
X88997142Y-41426666D01*
X89068571Y-41426666D01*
X89116190Y-41450476D01*
X89140000Y-41474285D01*
X89163809Y-41521904D01*
X89163809Y-41640952D01*
X89140000Y-41688571D01*
X89116190Y-41712380D01*
X89068571Y-41736190D01*
X88925714Y-41736190D01*
X88878095Y-41712380D01*
X88854285Y-41688571D01*
X88170000Y-39696190D02*
X88170000Y-39196190D01*
X88503333Y-39196190D02*
X88598571Y-39196190D01*
X88646190Y-39220000D01*
X88693809Y-39267619D01*
X88717619Y-39362857D01*
X88717619Y-39529523D01*
X88693809Y-39624761D01*
X88646190Y-39672380D01*
X88598571Y-39696190D01*
X88503333Y-39696190D01*
X88455714Y-39672380D01*
X88408095Y-39624761D01*
X88384285Y-39529523D01*
X88384285Y-39362857D01*
X88408095Y-39267619D01*
X88455714Y-39220000D01*
X88503333Y-39196190D01*
X89146190Y-39362857D02*
X89146190Y-39696190D01*
X89027142Y-39172380D02*
X88908095Y-39529523D01*
X89217619Y-39529523D01*
X88110000Y-37656190D02*
X88110000Y-37156190D01*
X88443333Y-37156190D02*
X88538571Y-37156190D01*
X88586190Y-37180000D01*
X88633809Y-37227619D01*
X88657619Y-37322857D01*
X88657619Y-37489523D01*
X88633809Y-37584761D01*
X88586190Y-37632380D01*
X88538571Y-37656190D01*
X88443333Y-37656190D01*
X88395714Y-37632380D01*
X88348095Y-37584761D01*
X88324285Y-37489523D01*
X88324285Y-37322857D01*
X88348095Y-37227619D01*
X88395714Y-37180000D01*
X88443333Y-37156190D01*
X89110000Y-37156190D02*
X88871904Y-37156190D01*
X88848095Y-37394285D01*
X88871904Y-37370476D01*
X88919523Y-37346666D01*
X89038571Y-37346666D01*
X89086190Y-37370476D01*
X89110000Y-37394285D01*
X89133809Y-37441904D01*
X89133809Y-37560952D01*
X89110000Y-37608571D01*
X89086190Y-37632380D01*
X89038571Y-37656190D01*
X88919523Y-37656190D01*
X88871904Y-37632380D01*
X88848095Y-37608571D01*
D11*
X94770000Y-39350000D02*
X94770000Y-40050000D01*
X93570000Y-40050000D02*
X93570000Y-39350000D01*
X90750000Y-42325000D02*
X91750000Y-42325000D01*
X91750000Y-43675000D02*
X90750000Y-43675000D01*
X90325000Y-39030000D02*
X90325000Y-40425000D01*
X90325000Y-40425000D02*
X91825000Y-40425000D01*
X91825000Y-40425000D02*
X91825000Y-38925000D01*
X91825000Y-38925000D02*
X90430000Y-38925000D01*
X90430000Y-38925000D02*
X90325000Y-39030000D01*
M02*
