G04 #@! TF.FileFunction,Copper,L1,Top,Signal*
%FSLAX46Y46*%
G04 Gerber Fmt 4.6, Leading zero omitted, Abs format (unit mm)*
G04 Created by KiCad (PCBNEW 0.201604232031+6710~44~ubuntu14.04.1-product) date Wed 27 Apr 2016 13:06:26 BST*
%MOMM*%
%LPD*%
G01*
G04 APERTURE LIST*
%ADD10C,0.100000*%
%ADD11R,0.750000X0.800000*%
%ADD12R,0.500000X0.900000*%
%ADD13C,0.160000*%
%ADD14R,2.000000X1.000000*%
%ADD15C,0.600000*%
%ADD16C,0.200000*%
%ADD17C,0.125000*%
%ADD18C,0.080000*%
G04 APERTURE END LIST*
D10*
D11*
X94170000Y-38950000D03*
X94170000Y-40450000D03*
D12*
X92000000Y-43000000D03*
X90500000Y-43000000D03*
D13*
X90550000Y-39150000D03*
X90550000Y-39500000D03*
X90550000Y-39850000D03*
X90550000Y-40200000D03*
X90900000Y-39150000D03*
X90900000Y-39500000D03*
X90900000Y-39850000D03*
X90900000Y-40200000D03*
X91250000Y-39150000D03*
X91250000Y-39500000D03*
X91250000Y-39850000D03*
X91250000Y-40200000D03*
X91600000Y-39150000D03*
X91600000Y-39500000D03*
X91600000Y-39850000D03*
X91600000Y-40200000D03*
D14*
X86700000Y-50000000D03*
X86700000Y-48000000D03*
X86700000Y-46000000D03*
X86700000Y-44000000D03*
X86700000Y-42000000D03*
X86700000Y-40000000D03*
X86700000Y-38000000D03*
X97300000Y-38000000D03*
X97300000Y-40000000D03*
X97300000Y-42000000D03*
X97300000Y-44000000D03*
X97300000Y-46000000D03*
X97300000Y-48000000D03*
X97300000Y-50000000D03*
D15*
X95250000Y-38033227D03*
X92605501Y-41123685D03*
X93380000Y-43590000D03*
X90820000Y-46250000D03*
X90178000Y-47956800D03*
X91878400Y-41985400D03*
X94200000Y-42610000D03*
X89410000Y-38170000D03*
X91730000Y-38280000D03*
X89730000Y-42790000D03*
X90920000Y-37410000D03*
X92580000Y-37780000D03*
X92960000Y-38650000D03*
D16*
X94420000Y-38070000D02*
X95000000Y-38044303D01*
X95000000Y-38044303D02*
X95238924Y-38044303D01*
X95250000Y-38033227D02*
X96000000Y-38000000D01*
X95238924Y-38044303D02*
X95250000Y-38033227D01*
X92599800Y-41117984D02*
X92605501Y-41123685D01*
X92599800Y-41043000D02*
X92599800Y-41117984D01*
D17*
X91600000Y-39500000D02*
X93020000Y-39500000D01*
D16*
X97000000Y-38000000D02*
X96000000Y-38000000D01*
X94170000Y-38950000D02*
X94420000Y-38070000D01*
X93220000Y-39140000D02*
X94170000Y-38950000D01*
X93020000Y-39500000D02*
X93220000Y-39140000D01*
D17*
X91600000Y-40200000D02*
X92599800Y-41043000D01*
X92599800Y-41043000D02*
X92620000Y-41060000D01*
D18*
X91440000Y-40050000D02*
X91430000Y-40060000D01*
X91430000Y-40060000D02*
X91430000Y-40430000D01*
X91430000Y-40430000D02*
X91540000Y-40540000D01*
D17*
X91250000Y-39850000D02*
X91410000Y-40010000D01*
D16*
X93380000Y-43590000D02*
X93380000Y-42725400D01*
X93380000Y-42725400D02*
X92108500Y-41453900D01*
X92108500Y-41453900D02*
X92108500Y-41395700D01*
X92108500Y-41395700D02*
X92049500Y-41336700D01*
D17*
X92049500Y-41336700D02*
X92090000Y-41400000D01*
X91540000Y-40540000D02*
X92049500Y-41336700D01*
X90900000Y-39850000D02*
X90760000Y-39990000D01*
D16*
X89200001Y-40720699D02*
X89200001Y-44630001D01*
X90520001Y-45950001D02*
X90820000Y-46250000D01*
X89507300Y-40413400D02*
X89200001Y-40720699D01*
X89200001Y-44630001D02*
X90520001Y-45950001D01*
D18*
X90720000Y-40030000D02*
X90340000Y-40030000D01*
X90340000Y-40030000D02*
X90250000Y-40120000D01*
D17*
X89507300Y-40413400D02*
X89440000Y-40440000D01*
X90250000Y-40120000D02*
X89507300Y-40413400D01*
X90550000Y-39850000D02*
X89330000Y-39850000D01*
D16*
X89150200Y-47956800D02*
X90178000Y-47956800D01*
X88554300Y-47360900D02*
X89150200Y-47956800D01*
X88554300Y-40625700D02*
X88554300Y-47360900D01*
X89330000Y-39850000D02*
X88554300Y-40625700D01*
X97000000Y-50000000D02*
X96003700Y-50000000D01*
X91240000Y-44150000D02*
X91240000Y-43684600D01*
X91230000Y-42705100D02*
X89737500Y-41212600D01*
X96003700Y-50000000D02*
X91220000Y-45216300D01*
X91230000Y-43674600D02*
X91230000Y-42705100D01*
X91220000Y-45216300D02*
X91220000Y-44170000D01*
X91220000Y-44170000D02*
X91240000Y-44150000D01*
X91240000Y-43684600D02*
X91230000Y-43674600D01*
X89737500Y-41212600D02*
X89706200Y-41212600D01*
D17*
X90550000Y-40200000D02*
X89706200Y-41212600D01*
X89706200Y-41212600D02*
X89700000Y-41220000D01*
X91250000Y-40200000D02*
X91250000Y-41166100D01*
D16*
X91878400Y-41794500D02*
X91878400Y-41985400D01*
X91250000Y-41166100D02*
X91878400Y-41794500D01*
X92000000Y-43000000D02*
X92000000Y-43675300D01*
X92000000Y-43675300D02*
X92514700Y-44190000D01*
X92514700Y-44190000D02*
X92580000Y-44190000D01*
X92580000Y-44190000D02*
X92900000Y-44510000D01*
X92900000Y-44510000D02*
X94570000Y-44510000D01*
X94570000Y-44510000D02*
X95160000Y-43920000D01*
X95160000Y-43920000D02*
X95160000Y-42000000D01*
X95160000Y-42000000D02*
X97000000Y-42000000D01*
D17*
X90543800Y-41334200D02*
X90520000Y-41410000D01*
X90900000Y-40200000D02*
X90543800Y-41334200D01*
D16*
X92000000Y-42920400D02*
X92000000Y-43000000D01*
X90543800Y-41464200D02*
X92000000Y-42920400D01*
X90543800Y-41334200D02*
X90543800Y-41464200D01*
X94170000Y-40450000D02*
X94200000Y-42610000D01*
D17*
X91600000Y-39850000D02*
X92990000Y-39930000D01*
D16*
X93230000Y-40420000D02*
X94170000Y-40450000D01*
X92990000Y-39930000D02*
X93230000Y-40420000D01*
D17*
X90550000Y-39150000D02*
X89570000Y-38170000D01*
X89570000Y-38170000D02*
X89410000Y-38170000D01*
X91250000Y-39150000D02*
X91250000Y-38740000D01*
X91250000Y-38740000D02*
X91730000Y-38260000D01*
D16*
X90376600Y-43000000D02*
X89940000Y-43000000D01*
X89940000Y-43000000D02*
X89730000Y-42790000D01*
X90500000Y-43000000D02*
X90376600Y-43000000D01*
X90900000Y-37910000D02*
X90900000Y-37430000D01*
X90900000Y-37430000D02*
X90920000Y-37410000D01*
D17*
X90900000Y-39150000D02*
X90900000Y-37910000D01*
D16*
X92620000Y-37820000D02*
X92580000Y-37780000D01*
X92620000Y-38190000D02*
X92620000Y-37820000D01*
D17*
X91600000Y-39150000D02*
X92620000Y-38190000D01*
X90550000Y-39500000D02*
X89298700Y-38888900D01*
X89298700Y-38888900D02*
X89260000Y-38870000D01*
D16*
X87925300Y-40262300D02*
X87925300Y-42000000D01*
X89298700Y-38888900D02*
X87925300Y-40262300D01*
X87000000Y-42000000D02*
X87925300Y-42000000D01*
D17*
X91250000Y-39500000D02*
X91410000Y-39340000D01*
D16*
X92910000Y-38680000D02*
X92960000Y-38650000D01*
D17*
X91900000Y-39240000D02*
X92910000Y-38680000D01*
D18*
X91810000Y-39320000D02*
X91900000Y-39240000D01*
X91430000Y-39320000D02*
X91810000Y-39320000D01*
X90720000Y-39320000D02*
X90730000Y-39310000D01*
X90730000Y-39310000D02*
X90730000Y-38920000D01*
X90730000Y-38920000D02*
X90630000Y-38820000D01*
D17*
X90900000Y-39500000D02*
X90720000Y-39320000D01*
D16*
X88361900Y-37563400D02*
X87925300Y-38000000D01*
X89896400Y-37563400D02*
X88361900Y-37563400D01*
X90306200Y-37973200D02*
X89896400Y-37563400D01*
D17*
X90630000Y-38820000D02*
X90306200Y-37973200D01*
D16*
X87000000Y-38000000D02*
X87925300Y-38000000D01*
M02*
