G04 #@! TF.FileFunction,Copper,L3,Inr,Signal*
%FSLAX46Y46*%
G04 Gerber Fmt 4.6, Leading zero omitted, Abs format (unit mm)*
G04 Created by KiCad (PCBNEW 0.201604232031+6710~44~ubuntu14.04.1-product) date Wed 27 Apr 2016 13:06:26 BST*
%MOMM*%
%LPD*%
G01*
G04 APERTURE LIST*
%ADD10C,0.100000*%
%ADD11R,2.000000X1.000000*%
%ADD12C,0.600000*%
%ADD13C,0.254000*%
G04 APERTURE END LIST*
D10*
D11*
X86700000Y-50000000D03*
X86700000Y-48000000D03*
X86700000Y-46000000D03*
X86700000Y-44000000D03*
X86700000Y-42000000D03*
X86700000Y-40000000D03*
X86700000Y-38000000D03*
X97300000Y-38000000D03*
X97300000Y-40000000D03*
X97300000Y-42000000D03*
X97300000Y-44000000D03*
X97300000Y-46000000D03*
X97300000Y-48000000D03*
X97300000Y-50000000D03*
D12*
X95250000Y-38033227D03*
X92605501Y-41123685D03*
X93380000Y-43590000D03*
X90820000Y-46250000D03*
X90178000Y-47956800D03*
X91878400Y-41985400D03*
X94200000Y-42610000D03*
X89410000Y-38170000D03*
X91730000Y-38280000D03*
X89730000Y-42790000D03*
X90920000Y-37410000D03*
X92580000Y-37780000D03*
X92960000Y-38650000D03*
D13*
G36*
X89985162Y-37223201D02*
X89984988Y-37422547D01*
X89940327Y-37377808D01*
X89596799Y-37235162D01*
X89224833Y-37234838D01*
X88881057Y-37376883D01*
X88617808Y-37639673D01*
X88475162Y-37983201D01*
X88474838Y-38355167D01*
X88616883Y-38698943D01*
X88879673Y-38962192D01*
X89223201Y-39104838D01*
X89595167Y-39105162D01*
X89938943Y-38963117D01*
X90202192Y-38700327D01*
X90344838Y-38356799D01*
X90345012Y-38157453D01*
X90389673Y-38202192D01*
X90733201Y-38344838D01*
X90794943Y-38344892D01*
X90794838Y-38465167D01*
X90936883Y-38808943D01*
X91199673Y-39072192D01*
X91543201Y-39214838D01*
X91915167Y-39215162D01*
X92142958Y-39121041D01*
X92166883Y-39178943D01*
X92429673Y-39442192D01*
X92773201Y-39584838D01*
X93145167Y-39585162D01*
X93488943Y-39443117D01*
X93752192Y-39180327D01*
X93894838Y-38836799D01*
X93895162Y-38464833D01*
X93753117Y-38121057D01*
X93514911Y-37882435D01*
X93515162Y-37594833D01*
X93373117Y-37251057D01*
X93332132Y-37210000D01*
X95732803Y-37210000D01*
X95665000Y-37373691D01*
X95665000Y-37714250D01*
X95823750Y-37873000D01*
X97173000Y-37873000D01*
X97173000Y-37853000D01*
X97427000Y-37853000D01*
X97427000Y-37873000D01*
X97447000Y-37873000D01*
X97447000Y-38127000D01*
X97427000Y-38127000D01*
X97427000Y-38147000D01*
X97173000Y-38147000D01*
X97173000Y-38127000D01*
X95823750Y-38127000D01*
X95665000Y-38285750D01*
X95665000Y-38626309D01*
X95761673Y-38859698D01*
X95903320Y-39001346D01*
X95842191Y-39042191D01*
X95701843Y-39252235D01*
X95652560Y-39500000D01*
X95652560Y-40500000D01*
X95701843Y-40747765D01*
X95842191Y-40957809D01*
X95905334Y-41000000D01*
X95842191Y-41042191D01*
X95701843Y-41252235D01*
X95652560Y-41500000D01*
X95652560Y-42500000D01*
X95701843Y-42747765D01*
X95842191Y-42957809D01*
X95905334Y-43000000D01*
X95842191Y-43042191D01*
X95701843Y-43252235D01*
X95652560Y-43500000D01*
X95652560Y-44500000D01*
X95701843Y-44747765D01*
X95842191Y-44957809D01*
X95905334Y-45000000D01*
X95842191Y-45042191D01*
X95701843Y-45252235D01*
X95652560Y-45500000D01*
X95652560Y-46500000D01*
X95701843Y-46747765D01*
X95842191Y-46957809D01*
X95905334Y-47000000D01*
X95842191Y-47042191D01*
X95701843Y-47252235D01*
X95652560Y-47500000D01*
X95652560Y-48500000D01*
X95701843Y-48747765D01*
X95842191Y-48957809D01*
X95905334Y-49000000D01*
X95842191Y-49042191D01*
X95701843Y-49252235D01*
X95652560Y-49500000D01*
X95652560Y-50500000D01*
X95701843Y-50747765D01*
X95730064Y-50790000D01*
X88267197Y-50790000D01*
X88335000Y-50626309D01*
X88335000Y-50285750D01*
X88176250Y-50127000D01*
X86827000Y-50127000D01*
X86827000Y-50147000D01*
X86573000Y-50147000D01*
X86573000Y-50127000D01*
X86553000Y-50127000D01*
X86553000Y-49873000D01*
X86573000Y-49873000D01*
X86573000Y-49853000D01*
X86827000Y-49853000D01*
X86827000Y-49873000D01*
X88176250Y-49873000D01*
X88335000Y-49714250D01*
X88335000Y-49373691D01*
X88238327Y-49140302D01*
X88096680Y-48998654D01*
X88157809Y-48957809D01*
X88298157Y-48747765D01*
X88347440Y-48500000D01*
X88347440Y-48141967D01*
X89242838Y-48141967D01*
X89384883Y-48485743D01*
X89647673Y-48748992D01*
X89991201Y-48891638D01*
X90363167Y-48891962D01*
X90706943Y-48749917D01*
X90970192Y-48487127D01*
X91112838Y-48143599D01*
X91113162Y-47771633D01*
X90971117Y-47427857D01*
X90728605Y-47184921D01*
X91005167Y-47185162D01*
X91348943Y-47043117D01*
X91612192Y-46780327D01*
X91754838Y-46436799D01*
X91755162Y-46064833D01*
X91613117Y-45721057D01*
X91350327Y-45457808D01*
X91006799Y-45315162D01*
X90634833Y-45314838D01*
X90291057Y-45456883D01*
X90027808Y-45719673D01*
X89885162Y-46063201D01*
X89884838Y-46435167D01*
X90026883Y-46778943D01*
X90269395Y-47021879D01*
X89992833Y-47021638D01*
X89649057Y-47163683D01*
X89385808Y-47426473D01*
X89243162Y-47770001D01*
X89242838Y-48141967D01*
X88347440Y-48141967D01*
X88347440Y-47500000D01*
X88298157Y-47252235D01*
X88157809Y-47042191D01*
X88094666Y-47000000D01*
X88157809Y-46957809D01*
X88298157Y-46747765D01*
X88347440Y-46500000D01*
X88347440Y-45500000D01*
X88298157Y-45252235D01*
X88157809Y-45042191D01*
X88094666Y-45000000D01*
X88157809Y-44957809D01*
X88298157Y-44747765D01*
X88347440Y-44500000D01*
X88347440Y-43775167D01*
X92444838Y-43775167D01*
X92586883Y-44118943D01*
X92849673Y-44382192D01*
X93193201Y-44524838D01*
X93565167Y-44525162D01*
X93908943Y-44383117D01*
X94172192Y-44120327D01*
X94314838Y-43776799D01*
X94315040Y-43545101D01*
X94385167Y-43545162D01*
X94728943Y-43403117D01*
X94992192Y-43140327D01*
X95134838Y-42796799D01*
X95135162Y-42424833D01*
X94993117Y-42081057D01*
X94730327Y-41817808D01*
X94386799Y-41675162D01*
X94014833Y-41674838D01*
X93671057Y-41816883D01*
X93407808Y-42079673D01*
X93265162Y-42423201D01*
X93264960Y-42654899D01*
X93194833Y-42654838D01*
X92851057Y-42796883D01*
X92587808Y-43059673D01*
X92445162Y-43403201D01*
X92444838Y-43775167D01*
X88347440Y-43775167D01*
X88347440Y-43500000D01*
X88298157Y-43252235D01*
X88157809Y-43042191D01*
X88094666Y-43000000D01*
X88131831Y-42975167D01*
X88794838Y-42975167D01*
X88936883Y-43318943D01*
X89199673Y-43582192D01*
X89543201Y-43724838D01*
X89915167Y-43725162D01*
X90258943Y-43583117D01*
X90522192Y-43320327D01*
X90664838Y-42976799D01*
X90665162Y-42604833D01*
X90523117Y-42261057D01*
X90432785Y-42170567D01*
X90943238Y-42170567D01*
X91085283Y-42514343D01*
X91348073Y-42777592D01*
X91691601Y-42920238D01*
X92063567Y-42920562D01*
X92407343Y-42778517D01*
X92670592Y-42515727D01*
X92813238Y-42172199D01*
X92813562Y-41800233D01*
X92671517Y-41456457D01*
X92408727Y-41193208D01*
X92065199Y-41050562D01*
X91693233Y-41050238D01*
X91349457Y-41192283D01*
X91086208Y-41455073D01*
X90943562Y-41798601D01*
X90943238Y-42170567D01*
X90432785Y-42170567D01*
X90260327Y-41997808D01*
X89916799Y-41855162D01*
X89544833Y-41854838D01*
X89201057Y-41996883D01*
X88937808Y-42259673D01*
X88795162Y-42603201D01*
X88794838Y-42975167D01*
X88131831Y-42975167D01*
X88157809Y-42957809D01*
X88298157Y-42747765D01*
X88347440Y-42500000D01*
X88347440Y-41500000D01*
X88298157Y-41252235D01*
X88157809Y-41042191D01*
X88094666Y-41000000D01*
X88157809Y-40957809D01*
X88298157Y-40747765D01*
X88347440Y-40500000D01*
X88347440Y-39500000D01*
X88298157Y-39252235D01*
X88157809Y-39042191D01*
X88094666Y-39000000D01*
X88157809Y-38957809D01*
X88298157Y-38747765D01*
X88347440Y-38500000D01*
X88347440Y-37500000D01*
X88298157Y-37252235D01*
X88269936Y-37210000D01*
X89990644Y-37210000D01*
X89985162Y-37223201D01*
X89985162Y-37223201D01*
G37*
X89985162Y-37223201D02*
X89984988Y-37422547D01*
X89940327Y-37377808D01*
X89596799Y-37235162D01*
X89224833Y-37234838D01*
X88881057Y-37376883D01*
X88617808Y-37639673D01*
X88475162Y-37983201D01*
X88474838Y-38355167D01*
X88616883Y-38698943D01*
X88879673Y-38962192D01*
X89223201Y-39104838D01*
X89595167Y-39105162D01*
X89938943Y-38963117D01*
X90202192Y-38700327D01*
X90344838Y-38356799D01*
X90345012Y-38157453D01*
X90389673Y-38202192D01*
X90733201Y-38344838D01*
X90794943Y-38344892D01*
X90794838Y-38465167D01*
X90936883Y-38808943D01*
X91199673Y-39072192D01*
X91543201Y-39214838D01*
X91915167Y-39215162D01*
X92142958Y-39121041D01*
X92166883Y-39178943D01*
X92429673Y-39442192D01*
X92773201Y-39584838D01*
X93145167Y-39585162D01*
X93488943Y-39443117D01*
X93752192Y-39180327D01*
X93894838Y-38836799D01*
X93895162Y-38464833D01*
X93753117Y-38121057D01*
X93514911Y-37882435D01*
X93515162Y-37594833D01*
X93373117Y-37251057D01*
X93332132Y-37210000D01*
X95732803Y-37210000D01*
X95665000Y-37373691D01*
X95665000Y-37714250D01*
X95823750Y-37873000D01*
X97173000Y-37873000D01*
X97173000Y-37853000D01*
X97427000Y-37853000D01*
X97427000Y-37873000D01*
X97447000Y-37873000D01*
X97447000Y-38127000D01*
X97427000Y-38127000D01*
X97427000Y-38147000D01*
X97173000Y-38147000D01*
X97173000Y-38127000D01*
X95823750Y-38127000D01*
X95665000Y-38285750D01*
X95665000Y-38626309D01*
X95761673Y-38859698D01*
X95903320Y-39001346D01*
X95842191Y-39042191D01*
X95701843Y-39252235D01*
X95652560Y-39500000D01*
X95652560Y-40500000D01*
X95701843Y-40747765D01*
X95842191Y-40957809D01*
X95905334Y-41000000D01*
X95842191Y-41042191D01*
X95701843Y-41252235D01*
X95652560Y-41500000D01*
X95652560Y-42500000D01*
X95701843Y-42747765D01*
X95842191Y-42957809D01*
X95905334Y-43000000D01*
X95842191Y-43042191D01*
X95701843Y-43252235D01*
X95652560Y-43500000D01*
X95652560Y-44500000D01*
X95701843Y-44747765D01*
X95842191Y-44957809D01*
X95905334Y-45000000D01*
X95842191Y-45042191D01*
X95701843Y-45252235D01*
X95652560Y-45500000D01*
X95652560Y-46500000D01*
X95701843Y-46747765D01*
X95842191Y-46957809D01*
X95905334Y-47000000D01*
X95842191Y-47042191D01*
X95701843Y-47252235D01*
X95652560Y-47500000D01*
X95652560Y-48500000D01*
X95701843Y-48747765D01*
X95842191Y-48957809D01*
X95905334Y-49000000D01*
X95842191Y-49042191D01*
X95701843Y-49252235D01*
X95652560Y-49500000D01*
X95652560Y-50500000D01*
X95701843Y-50747765D01*
X95730064Y-50790000D01*
X88267197Y-50790000D01*
X88335000Y-50626309D01*
X88335000Y-50285750D01*
X88176250Y-50127000D01*
X86827000Y-50127000D01*
X86827000Y-50147000D01*
X86573000Y-50147000D01*
X86573000Y-50127000D01*
X86553000Y-50127000D01*
X86553000Y-49873000D01*
X86573000Y-49873000D01*
X86573000Y-49853000D01*
X86827000Y-49853000D01*
X86827000Y-49873000D01*
X88176250Y-49873000D01*
X88335000Y-49714250D01*
X88335000Y-49373691D01*
X88238327Y-49140302D01*
X88096680Y-48998654D01*
X88157809Y-48957809D01*
X88298157Y-48747765D01*
X88347440Y-48500000D01*
X88347440Y-48141967D01*
X89242838Y-48141967D01*
X89384883Y-48485743D01*
X89647673Y-48748992D01*
X89991201Y-48891638D01*
X90363167Y-48891962D01*
X90706943Y-48749917D01*
X90970192Y-48487127D01*
X91112838Y-48143599D01*
X91113162Y-47771633D01*
X90971117Y-47427857D01*
X90728605Y-47184921D01*
X91005167Y-47185162D01*
X91348943Y-47043117D01*
X91612192Y-46780327D01*
X91754838Y-46436799D01*
X91755162Y-46064833D01*
X91613117Y-45721057D01*
X91350327Y-45457808D01*
X91006799Y-45315162D01*
X90634833Y-45314838D01*
X90291057Y-45456883D01*
X90027808Y-45719673D01*
X89885162Y-46063201D01*
X89884838Y-46435167D01*
X90026883Y-46778943D01*
X90269395Y-47021879D01*
X89992833Y-47021638D01*
X89649057Y-47163683D01*
X89385808Y-47426473D01*
X89243162Y-47770001D01*
X89242838Y-48141967D01*
X88347440Y-48141967D01*
X88347440Y-47500000D01*
X88298157Y-47252235D01*
X88157809Y-47042191D01*
X88094666Y-47000000D01*
X88157809Y-46957809D01*
X88298157Y-46747765D01*
X88347440Y-46500000D01*
X88347440Y-45500000D01*
X88298157Y-45252235D01*
X88157809Y-45042191D01*
X88094666Y-45000000D01*
X88157809Y-44957809D01*
X88298157Y-44747765D01*
X88347440Y-44500000D01*
X88347440Y-43775167D01*
X92444838Y-43775167D01*
X92586883Y-44118943D01*
X92849673Y-44382192D01*
X93193201Y-44524838D01*
X93565167Y-44525162D01*
X93908943Y-44383117D01*
X94172192Y-44120327D01*
X94314838Y-43776799D01*
X94315040Y-43545101D01*
X94385167Y-43545162D01*
X94728943Y-43403117D01*
X94992192Y-43140327D01*
X95134838Y-42796799D01*
X95135162Y-42424833D01*
X94993117Y-42081057D01*
X94730327Y-41817808D01*
X94386799Y-41675162D01*
X94014833Y-41674838D01*
X93671057Y-41816883D01*
X93407808Y-42079673D01*
X93265162Y-42423201D01*
X93264960Y-42654899D01*
X93194833Y-42654838D01*
X92851057Y-42796883D01*
X92587808Y-43059673D01*
X92445162Y-43403201D01*
X92444838Y-43775167D01*
X88347440Y-43775167D01*
X88347440Y-43500000D01*
X88298157Y-43252235D01*
X88157809Y-43042191D01*
X88094666Y-43000000D01*
X88131831Y-42975167D01*
X88794838Y-42975167D01*
X88936883Y-43318943D01*
X89199673Y-43582192D01*
X89543201Y-43724838D01*
X89915167Y-43725162D01*
X90258943Y-43583117D01*
X90522192Y-43320327D01*
X90664838Y-42976799D01*
X90665162Y-42604833D01*
X90523117Y-42261057D01*
X90432785Y-42170567D01*
X90943238Y-42170567D01*
X91085283Y-42514343D01*
X91348073Y-42777592D01*
X91691601Y-42920238D01*
X92063567Y-42920562D01*
X92407343Y-42778517D01*
X92670592Y-42515727D01*
X92813238Y-42172199D01*
X92813562Y-41800233D01*
X92671517Y-41456457D01*
X92408727Y-41193208D01*
X92065199Y-41050562D01*
X91693233Y-41050238D01*
X91349457Y-41192283D01*
X91086208Y-41455073D01*
X90943562Y-41798601D01*
X90943238Y-42170567D01*
X90432785Y-42170567D01*
X90260327Y-41997808D01*
X89916799Y-41855162D01*
X89544833Y-41854838D01*
X89201057Y-41996883D01*
X88937808Y-42259673D01*
X88795162Y-42603201D01*
X88794838Y-42975167D01*
X88131831Y-42975167D01*
X88157809Y-42957809D01*
X88298157Y-42747765D01*
X88347440Y-42500000D01*
X88347440Y-41500000D01*
X88298157Y-41252235D01*
X88157809Y-41042191D01*
X88094666Y-41000000D01*
X88157809Y-40957809D01*
X88298157Y-40747765D01*
X88347440Y-40500000D01*
X88347440Y-39500000D01*
X88298157Y-39252235D01*
X88157809Y-39042191D01*
X88094666Y-39000000D01*
X88157809Y-38957809D01*
X88298157Y-38747765D01*
X88347440Y-38500000D01*
X88347440Y-37500000D01*
X88298157Y-37252235D01*
X88269936Y-37210000D01*
X89990644Y-37210000D01*
X89985162Y-37223201D01*
M02*
