M48
;DRILL file {KiCad 0.201604232031+6710~44~ubuntu14.04.1-product} date Wed 27 Apr 2016 13:06:29 BST
;FORMAT={-:-/ absolute / inch / decimal}
FMAT,2
INCH,TZ
T1C0.016
T2C0.030
%
G90
G05
M72
T1
X3.5201Y-1.5028
X3.5327Y-1.6846
X3.5503Y-1.8881
X3.5756Y-1.8209
X3.5795Y-1.4728
X3.6114Y-1.5071
X3.6173Y-1.653
X3.6449Y-1.4874
X3.6459Y-1.619
X3.6598Y-1.5217
X3.6764Y-1.7161
X3.7087Y-1.6776
X3.75Y-1.4974
T2
X3.4252Y-1.4961
X3.4252Y-1.5748
X3.4252Y-1.6535
X3.4252Y-1.7323
X3.4252Y-1.811
X3.4252Y-1.8898
X3.4252Y-1.9685
X3.8189Y-1.4961
X3.8189Y-1.5748
X3.8189Y-1.6535
X3.8189Y-1.7323
X3.8189Y-1.811
X3.8189Y-1.8898
X3.8189Y-1.9685
T0
M30
